<svg xmlns="http://www.w3.org/2000/svg" xmlns:xlink="http://www.w3.org/1999/xlink" viewBox="0 0 573.34 1718.69"><defs><style>.cls-1{fill:none;}.cls-2{isolation:isolate;}.cls-3{clip-path:url(#clip-path);}.cls-4{fill:#ffdd2c;}.cls-5{fill:#56c2e8;}</style><clipPath id="clip-path" transform="translate(-37.19 -251.26)"><polygon class="cls-1" points="343.52 251.26 636.21 1409.46 0 1409.46 292.69 251.26 343.52 251.26"/></clipPath></defs><g id="Ebene_2" data-name="Ebene 2"><g id="Ebene_4" data-name="Ebene 4"><g class="cls-2"><g class="cls-3"><path class="cls-4" d="M296.72,251.26a14.7,14.7,0,0,1,1.55.08,9.59,9.59,0,0,1,1.24.23,3,3,0,0,1,.81.34c.19.13.28.28.25.43s-.17.29-.4.42a4,4,0,0,1-.94.35,10.67,10.67,0,0,1-1.35.24c-.51.05-1.06.08-1.62.08a15.5,15.5,0,0,1-1.59-.08,8.43,8.43,0,0,1-1.25-.24,2.46,2.46,0,0,1-.79-.35.42.42,0,0,1-.22-.42.8.8,0,0,1,.43-.43,4.86,4.86,0,0,1,1-.34,12.76,12.76,0,0,1,1.34-.23,15.8,15.8,0,0,1,1.59-.08" transform="translate(-37.19 -251.26)"/><path class="cls-4" d="M296.11,254.11a15.55,15.55,0,0,1,1.6.08,7.64,7.64,0,0,1,1.28.25,2.71,2.71,0,0,1,.83.36.47.47,0,0,1,.25.44.75.75,0,0,1-.41.45,3.79,3.79,0,0,1-1,.37,9.82,9.82,0,0,1-1.4.25,14.56,14.56,0,0,1-1.67.1,13.41,13.41,0,0,1-1.62-.1,7.57,7.57,0,0,1-1.29-.25,2.36,2.36,0,0,1-.81-.37c-.18-.14-.26-.29-.22-.45a.84.84,0,0,1,.44-.44,4.05,4.05,0,0,1,1-.36,9.51,9.51,0,0,1,1.38-.25c.51-.05,1.06-.08,1.63-.08" transform="translate(-37.19 -251.26)"/><path class="cls-4" d="M295.47,257.12a14,14,0,0,1,1.65.09,8,8,0,0,1,1.31.26,2.84,2.84,0,0,1,.85.38.5.5,0,0,1,.26.47.8.8,0,0,1-.43.48,3.86,3.86,0,0,1-1,.39,11.28,11.28,0,0,1-1.44.27,15.33,15.33,0,0,1-1.72.1,14.28,14.28,0,0,1-1.67-.1,8.7,8.7,0,0,1-1.32-.27,2.44,2.44,0,0,1-.84-.39.48.48,0,0,1-.22-.48.86.86,0,0,1,.46-.47,4.57,4.57,0,0,1,1-.38,10.05,10.05,0,0,1,1.42-.26,15,15,0,0,1,1.68-.09" transform="translate(-37.19 -251.26)"/><path class="cls-4" d="M294.79,260.31a12.86,12.86,0,0,1,1.7.1,8.46,8.46,0,0,1,1.35.27,2.83,2.83,0,0,1,.87.41.52.52,0,0,1,.26.5.79.79,0,0,1-.44.5,3.91,3.91,0,0,1-1,.42,9.3,9.3,0,0,1-1.48.28,14.29,14.29,0,0,1-1.78.11,13,13,0,0,1-1.72-.11,7,7,0,0,1-1.36-.28,2.55,2.55,0,0,1-.86-.42.47.47,0,0,1-.22-.5.89.89,0,0,1,.47-.5,4.25,4.25,0,0,1,1.05-.41,10.33,10.33,0,0,1,1.46-.27,13.65,13.65,0,0,1,1.73-.1" transform="translate(-37.19 -251.26)"/><path class="cls-4" d="M294.07,263.7a15.6,15.6,0,0,1,1.75.1,8.64,8.64,0,0,1,1.39.29,3.15,3.15,0,0,1,.9.43.57.57,0,0,1,.26.54.89.89,0,0,1-.45.54,4.61,4.61,0,0,1-1.07.44,9.64,9.64,0,0,1-1.53.3,15.13,15.13,0,0,1-1.83.11,13.94,13.94,0,0,1-1.78-.11,7.39,7.39,0,0,1-1.4-.3,2.75,2.75,0,0,1-.88-.44.52.52,0,0,1-.23-.54,1,1,0,0,1,.49-.54,4.94,4.94,0,0,1,1.08-.43,11.43,11.43,0,0,1,1.52-.29,16.6,16.6,0,0,1,1.78-.1" transform="translate(-37.19 -251.26)"/><path class="cls-4" d="M307.41,251.26a14.9,14.9,0,0,1,1.56.08,10.87,10.87,0,0,1,1.27.23,3.29,3.29,0,0,1,.84.34.51.51,0,0,1,.29.43c0,.15-.13.29-.35.42a3.44,3.44,0,0,1-.9.35,10,10,0,0,1-1.33.24,16.06,16.06,0,0,1-1.61.08,15.5,15.5,0,0,1-1.59-.08,8.9,8.9,0,0,1-1.28-.24,2.86,2.86,0,0,1-.83-.35c-.19-.13-.28-.27-.26-.42a.69.69,0,0,1,.38-.43,4.28,4.28,0,0,1,.92-.34,11.69,11.69,0,0,1,1.31-.23,15.59,15.59,0,0,1,1.58-.08" transform="translate(-37.19 -251.26)"/><path class="cls-4" d="M307.11,254.11a16.06,16.06,0,0,1,1.61.08,8.12,8.12,0,0,1,1.3.25,2.92,2.92,0,0,1,.86.36.54.54,0,0,1,.3.44c0,.16-.14.31-.36.45a3.32,3.32,0,0,1-.93.37,8.89,8.89,0,0,1-1.37.25,14.2,14.2,0,0,1-1.65.1,13.93,13.93,0,0,1-1.65-.1,8,8,0,0,1-1.31-.25,2.62,2.62,0,0,1-.85-.37q-.3-.21-.27-.45a.75.75,0,0,1,.4-.44,3.55,3.55,0,0,1,.94-.36,9.07,9.07,0,0,1,1.35-.25c.51-.05,1.06-.08,1.63-.08" transform="translate(-37.19 -251.26)"/><path class="cls-4" d="M306.79,257.12a14,14,0,0,1,1.65.09,8.39,8.39,0,0,1,1.34.26,3.29,3.29,0,0,1,.89.38.56.56,0,0,1,.31.47c0,.17-.15.33-.38.48a3.44,3.44,0,0,1-1,.39,11.08,11.08,0,0,1-1.41.27,15.28,15.28,0,0,1-1.71.1,14.78,14.78,0,0,1-1.69-.1,9.73,9.73,0,0,1-1.35-.27,2.8,2.8,0,0,1-.88-.39.53.53,0,0,1-.27-.48.75.75,0,0,1,.41-.47,4.17,4.17,0,0,1,1-.38,9.6,9.6,0,0,1,1.39-.26,14.82,14.82,0,0,1,1.68-.09" transform="translate(-37.19 -251.26)"/><path class="cls-4" d="M306.45,260.31a12.86,12.86,0,0,1,1.7.1,8.88,8.88,0,0,1,1.38.27,3.18,3.18,0,0,1,.92.41.6.6,0,0,1,.31.5.71.71,0,0,1-.38.5,3.72,3.72,0,0,1-1,.42,8.89,8.89,0,0,1-1.45.28,14,14,0,0,1-1.76.11,13.45,13.45,0,0,1-1.75-.11,7.73,7.73,0,0,1-1.39-.28,2.8,2.8,0,0,1-.9-.42.56.56,0,0,1-.28-.5.8.8,0,0,1,.43-.5,3.68,3.68,0,0,1,1-.41,9.87,9.87,0,0,1,1.43-.27,13.54,13.54,0,0,1,1.73-.1" transform="translate(-37.19 -251.26)"/><path class="cls-4" d="M306.09,263.7a15.6,15.6,0,0,1,1.75.1,9.07,9.07,0,0,1,1.42.29,3.4,3.4,0,0,1,.95.43.66.66,0,0,1,.32.54.76.76,0,0,1-.4.54,4,4,0,0,1-1,.44,9,9,0,0,1-1.5.3,14.67,14.67,0,0,1-1.81.11,14.38,14.38,0,0,1-1.8-.11,8.12,8.12,0,0,1-1.43-.3,3.23,3.23,0,0,1-.93-.44.59.59,0,0,1-.28-.54.85.85,0,0,1,.43-.54,4.53,4.53,0,0,1,1-.43,10.49,10.49,0,0,1,1.48-.29,16.45,16.45,0,0,1,1.78-.1" transform="translate(-37.19 -251.26)"/><path class="cls-4" d="M318.1,251.26a15.24,15.24,0,0,1,1.57.08,10.89,10.89,0,0,1,1.29.23,4,4,0,0,1,.89.34c.21.13.33.28.33.43s-.1.29-.3.42a3.32,3.32,0,0,1-.87.35,9.5,9.5,0,0,1-1.3.24c-.5.05-1,.08-1.61.08a15.85,15.85,0,0,1-1.6-.08,9.5,9.5,0,0,1-1.3-.24,3.18,3.18,0,0,1-.87-.35c-.2-.13-.31-.27-.31-.42a.61.61,0,0,1,.34-.43,3.85,3.85,0,0,1,.88-.34,11.69,11.69,0,0,1,1.29-.23,15.39,15.39,0,0,1,1.57-.08" transform="translate(-37.19 -251.26)"/><path class="cls-4" d="M318.1,254.11c.57,0,1.12,0,1.62.08a8.54,8.54,0,0,1,1.33.25,3.1,3.1,0,0,1,.9.36.62.62,0,0,1,.35.44.59.59,0,0,1-.31.45,3.09,3.09,0,0,1-.9.37,8.46,8.46,0,0,1-1.34.25,13.66,13.66,0,0,1-3.3,0,8.69,8.69,0,0,1-1.34-.25,3,3,0,0,1-.89-.37c-.21-.14-.32-.29-.31-.45a.6.6,0,0,1,.34-.44,3.31,3.31,0,0,1,.91-.36,8.54,8.54,0,0,1,1.33-.25,16.06,16.06,0,0,1,1.61-.08" transform="translate(-37.19 -251.26)"/><path class="cls-4" d="M318.1,257.12a14.64,14.64,0,0,1,1.67.09,8.9,8.9,0,0,1,1.36.26,3.63,3.63,0,0,1,.93.38c.23.14.36.3.36.47s-.11.33-.32.48a3.09,3.09,0,0,1-.92.39,10.23,10.23,0,0,1-1.38.27,14.5,14.5,0,0,1-3.4,0,10.23,10.23,0,0,1-1.38-.27,3.21,3.21,0,0,1-.92-.39.62.62,0,0,1-.32-.48.66.66,0,0,1,.36-.47,3.63,3.63,0,0,1,.93-.38,9,9,0,0,1,1.37-.26,14.33,14.33,0,0,1,1.66-.09" transform="translate(-37.19 -251.26)"/><path class="cls-4" d="M318.1,260.31a13.28,13.28,0,0,1,1.72.1,9.42,9.42,0,0,1,1.4.27,3.36,3.36,0,0,1,1,.41c.23.15.37.32.37.5a.6.6,0,0,1-.33.5,3.15,3.15,0,0,1-1,.42,8.11,8.11,0,0,1-1.42.28,14,14,0,0,1-3.5,0,8.11,8.11,0,0,1-1.42-.28,3.27,3.27,0,0,1-.95-.42.6.6,0,0,1-.33-.5.69.69,0,0,1,.37-.5,3.49,3.49,0,0,1,1-.41,9.32,9.32,0,0,1,1.41-.27,13.23,13.23,0,0,1,1.71-.1" transform="translate(-37.19 -251.26)"/><path class="cls-4" d="M318.1,263.7a16.26,16.26,0,0,1,1.77.1,10,10,0,0,1,1.45.29,3.89,3.89,0,0,1,1,.43.75.75,0,0,1,.38.54.67.67,0,0,1-.34.54,3.63,3.63,0,0,1-1,.44,8.5,8.5,0,0,1-1.46.3,14.67,14.67,0,0,1-1.81.11,14.38,14.38,0,0,1-1.8-.11,8.63,8.63,0,0,1-1.47-.3,3.63,3.63,0,0,1-1-.44.69.69,0,0,1-.34-.54.75.75,0,0,1,.38-.54,4.05,4.05,0,0,1,1-.43,9.91,9.91,0,0,1,1.46-.29,16.07,16.07,0,0,1,1.76-.1" transform="translate(-37.19 -251.26)"/><path class="cls-4" d="M328.8,251.26a15.75,15.75,0,0,1,1.58.08,12.11,12.11,0,0,1,1.31.23,4.5,4.5,0,0,1,.92.34.72.72,0,0,1,.38.43c0,.15-.08.29-.26.42a3,3,0,0,1-.83.35,8.9,8.9,0,0,1-1.28.24,15.65,15.65,0,0,1-1.59.08c-.57,0-1.12,0-1.62-.08a10.14,10.14,0,0,1-1.32-.24,3.68,3.68,0,0,1-.91-.35c-.21-.13-.34-.27-.35-.42a.53.53,0,0,1,.29-.43,3.55,3.55,0,0,1,.85-.34,10.3,10.3,0,0,1,1.26-.23,15.24,15.24,0,0,1,1.57-.08" transform="translate(-37.19 -251.26)"/><path class="cls-4" d="M329.1,254.11c.57,0,1.12,0,1.62.08a9,9,0,0,1,1.36.25,3.55,3.55,0,0,1,.94.36.69.69,0,0,1,.39.44.5.5,0,0,1-.26.45,2.8,2.8,0,0,1-.86.37,7.84,7.84,0,0,1-1.31.25,13.76,13.76,0,0,1-1.64.1,14.52,14.52,0,0,1-1.66-.1,9,9,0,0,1-1.36-.25,3.53,3.53,0,0,1-.94-.37c-.22-.14-.35-.29-.36-.45a.54.54,0,0,1,.3-.44,2.88,2.88,0,0,1,.87-.36,8.12,8.12,0,0,1,1.3-.25,16.06,16.06,0,0,1,1.61-.08" transform="translate(-37.19 -251.26)"/><path class="cls-4" d="M329.42,257.12a14.64,14.64,0,0,1,1.67.09,9.34,9.34,0,0,1,1.39.26,4.09,4.09,0,0,1,1,.38.73.73,0,0,1,.4.47c0,.17-.07.33-.27.48a2.84,2.84,0,0,1-.87.39,9.73,9.73,0,0,1-1.35.27,14.78,14.78,0,0,1-1.69.1,15.14,15.14,0,0,1-1.71-.1,10.75,10.75,0,0,1-1.41-.27,3.52,3.52,0,0,1-1-.39.68.68,0,0,1-.37-.48.57.57,0,0,1,.3-.47,3.43,3.43,0,0,1,.89-.38,8.62,8.62,0,0,1,1.34-.26,14.33,14.33,0,0,1,1.66-.09" transform="translate(-37.19 -251.26)"/><path class="cls-4" d="M329.76,260.31a13.28,13.28,0,0,1,1.72.1,10,10,0,0,1,1.44.27,4,4,0,0,1,1,.41.78.78,0,0,1,.42.5.52.52,0,0,1-.28.5,2.8,2.8,0,0,1-.9.42,7.73,7.73,0,0,1-1.39.28,13.41,13.41,0,0,1-1.74.11,13.85,13.85,0,0,1-1.76-.11,8.69,8.69,0,0,1-1.45-.28,3.58,3.58,0,0,1-1-.42.72.72,0,0,1-.39-.5.59.59,0,0,1,.32-.5,3,3,0,0,1,.92-.41,8.74,8.74,0,0,1,1.37-.27,13,13,0,0,1,1.71-.1" transform="translate(-37.19 -251.26)"/><path class="cls-4" d="M330.12,263.7a16.75,16.75,0,0,1,1.78.1,10.49,10.49,0,0,1,1.48.29,4.43,4.43,0,0,1,1,.43.87.87,0,0,1,.44.54.61.61,0,0,1-.28.54,3.23,3.23,0,0,1-.93.44,8.05,8.05,0,0,1-1.44.3,14.1,14.1,0,0,1-1.79.11,14.83,14.83,0,0,1-1.82-.11,9.24,9.24,0,0,1-1.5-.3,4.14,4.14,0,0,1-1-.44.82.82,0,0,1-.4-.54.68.68,0,0,1,.33-.54,3.46,3.46,0,0,1,.94-.43,9.07,9.07,0,0,1,1.42-.29,15.92,15.92,0,0,1,1.76-.1" transform="translate(-37.19 -251.26)"/><path class="cls-4" d="M339.49,251.26c.55,0,1.09,0,1.59.08a12.54,12.54,0,0,1,1.33.23,4.74,4.74,0,0,1,1,.34c.24.13.39.28.42.43s0,.29-.21.42a2.68,2.68,0,0,1-.79.35,8.59,8.59,0,0,1-1.26.24,15.3,15.3,0,0,1-1.58.08c-.57,0-1.12,0-1.62-.08a10.53,10.53,0,0,1-1.36-.24,4,4,0,0,1-.94-.35c-.23-.13-.37-.27-.39-.42s.06-.3.24-.43a3,3,0,0,1,.81-.34,10.28,10.28,0,0,1,1.24-.23,14.9,14.9,0,0,1,1.56-.08" transform="translate(-37.19 -251.26)"/><path class="cls-4" d="M340.09,254.11c.57,0,1.13,0,1.64.08a9.36,9.36,0,0,1,1.37.25,4,4,0,0,1,1,.36.84.84,0,0,1,.44.44c0,.16,0,.31-.22.45a2.46,2.46,0,0,1-.81.37,7.77,7.77,0,0,1-1.29.25,13.45,13.45,0,0,1-1.63.1,14.56,14.56,0,0,1-1.67-.1,9.42,9.42,0,0,1-1.39-.25,3.65,3.65,0,0,1-1-.37c-.24-.14-.39-.29-.41-.45a.46.46,0,0,1,.25-.44,2.6,2.6,0,0,1,.83-.36,7.71,7.71,0,0,1,1.27-.25,15.85,15.85,0,0,1,1.6-.08" transform="translate(-37.19 -251.26)"/><path class="cls-4" d="M340.73,257.12a14.82,14.82,0,0,1,1.68.09,10.21,10.21,0,0,1,1.43.26,4.57,4.57,0,0,1,1,.38.9.9,0,0,1,.46.47.48.48,0,0,1-.22.48,2.54,2.54,0,0,1-.84.39,9.25,9.25,0,0,1-1.32.27,14.46,14.46,0,0,1-1.68.1,15.61,15.61,0,0,1-1.72-.1,12,12,0,0,1-1.44-.27,4,4,0,0,1-1-.39.81.81,0,0,1-.42-.48.49.49,0,0,1,.25-.47,3,3,0,0,1,.86-.38,7.77,7.77,0,0,1,1.31-.26,13.86,13.86,0,0,1,1.64-.09" transform="translate(-37.19 -251.26)"/><path class="cls-4" d="M341.41,260.31a13.54,13.54,0,0,1,1.73.1,10.49,10.49,0,0,1,1.47.27,4.42,4.42,0,0,1,1.05.41.89.89,0,0,1,.47.5.47.47,0,0,1-.22.5,2.55,2.55,0,0,1-.86.42,7.37,7.37,0,0,1-1.36.28,13.14,13.14,0,0,1-1.73.11,14.13,14.13,0,0,1-1.77-.11,9.08,9.08,0,0,1-1.48-.28,4,4,0,0,1-1-.42.82.82,0,0,1-.44-.5.52.52,0,0,1,.26-.5,2.78,2.78,0,0,1,.88-.41,8.24,8.24,0,0,1,1.35-.27,12.6,12.6,0,0,1,1.69-.1" transform="translate(-37.19 -251.26)"/><path class="cls-4" d="M342.13,263.7a16.79,16.79,0,0,1,1.79.1,11,11,0,0,1,1.51.29,5.26,5.26,0,0,1,1.09.43,1,1,0,0,1,.49.54.54.54,0,0,1-.23.54,2.75,2.75,0,0,1-.88.44,7.56,7.56,0,0,1-1.4.3,13.94,13.94,0,0,1-1.78.11,15,15,0,0,1-1.83-.11,9.64,9.64,0,0,1-1.53-.3,4.71,4.71,0,0,1-1.08-.44.89.89,0,0,1-.45-.54.58.58,0,0,1,.27-.54,3,3,0,0,1,.9-.43,8.64,8.64,0,0,1,1.39-.29,15.41,15.41,0,0,1,1.74-.1" transform="translate(-37.19 -251.26)"/><polyline class="cls-5" points="289.28 18.43 293.36 18.43 471.21 1718.69 408.77 1718.69 289.28 18.43"/><polyline class="cls-5" points="282.6 18.43 286.68 18.43 369.08 1718.69 306.64 1718.69 282.6 18.43"/><polyline class="cls-5" points="269.22 18.43 273.3 18.43 164.57 1718.69 102.13 1718.69 269.22 18.43"/><polyline class="cls-5" points="275.92 18.43 279.99 18.43 266.79 1718.69 204.51 1718.69 275.92 18.43"/><polyline class="cls-5" points="262.54 18.43 266.62 18.43 62.45 1718.69 0 1718.69 262.54 18.43"/><polyline class="cls-5" points="295.97 18.43 300.04 18.43 573.34 1718.69 511.06 1718.69 295.97 18.43"/></g></g></g></g></svg>